Coordinates
version=1
nRows=5
nColumns=46
inDegrees=yes

Units are S.I. units (second, meters, Newtons, ...)
Angles are in degrees.

endheader
time	pelvis_tilt	pelvis_list	pelvis_rotation	pelvis_tx	pelvis_ty	pelvis_tz	bb_angle	bb_tx	bb_ty	bb_tz	hip_flexion_r	hip_adduction_r	hip_rotation_r	knee_angle_r	knee_angle_r_beta	ankle_angle_r	subtalar_angle_r	mtp_angle_r	crank_angle_r	hip_flexion_l	hip_adduction_l	hip_rotation_l	knee_angle_l	knee_angle_l_beta	ankle_angle_l	subtalar_angle_l	mtp_angle_l	crank_angle_l	lumbar_extension	lumbar_bending	lumbar_rotation	arm_flex_r	arm_add_r	arm_rot_r	elbow_flex_r	pro_sup_r	wrist_flex_r	wrist_dev_r	arm_flex_l	arm_add_l	arm_rot_l	elbow_flex_l	pro_sup_l	wrist_flex_l	wrist_dev_l
      5.00000000	    -20.92896855	     -4.52422236	     -3.46946938	      0.16340997	      1.05624603	     -0.22345229	      0.00000000	      0.50000000	      0.00000000	      0.25000000	     80.11576803	      2.29864851	      1.09695595	     79.65620747	      1.39026309	      7.41360864	    -12.95275752	      0.00000000	      0.00000000	     55.47937578	    -10.73934977	     -0.26131399	     73.49547877	      1.28273809	    -22.06937857	    -19.83196616	      0.00000000	      0.00000000	    -54.88319910	      1.92192656	      0.78105048	     86.96241939	     -6.30608744	     30.10566762	     53.83106331	     41.90157759	      0.00000000	      0.00000000	     82.11300326	    -21.31709147	     23.37464003	     61.09311072	     48.46011831	      0.00000000	      0.00000000
      5.00500000	    -20.97609224	     -4.03848889	     -3.14889655	      0.16439558	      1.05468470	     -0.22321720	      0.00000000	      0.50000000	      0.00000000	      0.25000000	     78.65856281	      1.90654866	      1.32981694	     77.06442570	      1.34502796	      6.92875149	    -13.67355279	      0.00000000	      0.00000000	     56.64448837	    -10.21760065	     -0.01391068	     76.21823782	      1.33025920	    -20.90639843	    -18.98098195	      0.00000000	      0.00000000	    -54.80547670	      1.69157251	      0.39038674	     86.55749032	     -6.69721343	     29.47121511	     54.81317753	     42.12062899	      0.00000000	      0.00000000	     81.64300613	    -21.00802450	     22.88189221	     62.15037891	     48.59761655	      0.00000000	      0.00000000
      5.01000000	    -20.87484814	     -3.25541441	     -2.78355842	      0.16546350	      1.05334136	     -0.22284219	      0.00000000	      0.50000000	      0.00000000	      0.25000000	     77.14186222	      1.31436651	      1.80054212	     74.70535123	      1.30385435	      6.63156628	    -13.87240319	      0.00000000	      0.00000000	     57.60187410	     -9.46883915	     -0.09767961	     78.80000100	      1.37531947	    -20.21468035	    -18.85739097	      0.00000000	      0.00000000	    -54.84737863	      1.21978352	     -0.33249034	     86.17818308	     -7.01988349	     29.08693565	     55.44929346	     42.30021390	      0.00000000	      0.00000000	     81.47913968	    -20.65941772	     22.49682382	     62.78103828	     48.67028447	      0.00000000	      0.00000000
      5.01500000	    -20.79358391	     -2.40096774	     -2.50438463	      0.16654660	      1.05204645	     -0.22247801	      0.00000000	      0.50000000	      0.00000000	      0.25000000	     75.66126080	      0.68178713	      2.29447039	     72.34898644	      1.26272802	      6.36571345	    -13.70928269	      0.00000000	      0.00000000	     58.58579887	     -8.73797694	     -0.30895495	     81.29649126	      1.41889144	    -19.91427419	    -18.98124503	      0.00000000	      0.00000000	    -54.82706732	      0.69608661	     -1.12028708	     86.03060583	     -7.19466324	     29.00419040	     55.53606570	     42.32632429	      0.00000000	      0.00000000	     81.36973373	    -20.43501315	     22.51613654	     62.88034789	     48.69042622	      0.00000000	      0.00000000
      5.02000000	    -20.79586250	     -1.64683359	     -2.24422539	      0.16768355	      1.05084403	     -0.22208046	      0.00000000	      0.50000000	      0.00000000	      0.25000000	     74.25059609	     -0.00345094	      2.53649431	     69.95525826	      1.22094959	      5.70150638	    -13.60853810	      0.00000000	      0.00000000	     59.69245109	     -8.11561882	     -0.47121606	     83.76663528	      1.46200359	    -19.29067034	    -18.92106986	      0.00000000	      0.00000000	    -54.77984879	      0.23019810	     -1.74453791	     85.76632462	     -7.37898915	     28.92075360	     55.79125750	     42.39688210	      0.00000000	      0.00000000	     81.42034342	    -20.21933093	     22.38430377	     63.14550945	     48.72046675	      0.00000000	      0.00000000
